# xmcd
#
# Track frame offsets:
#   150
#   15194
#   30351
#   47845
#   64919
#   85841
#   98163
#   111857
#   130650
#   147772
#   163142
#   181706
#   197574
#   218053
#   230713
#   245414
#   261726
#   277110
#   296025
#   316678
#
# Disc length: 4526 seconds
#
# Revision: 0
# Processed by: cddbd v1.5PL3 Copyright (c) Steve Scherf et al.
# Submitted via: Media_Universe 3.0
#
DISCID=1d11ac14
DTITLE=Brad Paisley - Who Needs Pictures/ Part II
DYEAR=1900
DGENRE=Country
TTITLE0=Long Sermon
TTITLE1=Me Neither
TTITLE2=Who Needs Pictures
TTITLE3=I Breathe In I Breathe Out
TTITLE4=He Didn't Have To Be
TTITLE5=It Never Would Have Worked Out
TTITLE6=Holding Onto You
TTITLE7=I've Been Better
TTITLE8=We Danced
TTITLE9=Sleepin' On The Foldout
TTITLE10=Cloud Of Dust
TTITLE11=The Nervous Breakdown
TTITLE12=In The Garden
TTITLE13=Two Feet Of Topsoil
TTITLE14=I'm Gonna Miss Her
TTITLE15=Part II
TTITLE16=Wrapped Around
TTITLE17=Two People Fell In Love
TTITLE18=Come On Over Tonight
TTITLE19=You'll Never Leave Harlem Alive
EXTD=
EXTT0=
EXTT1=
EXTT2=
EXTT3=
EXTT4=
EXTT5=
EXTT6=
EXTT7=
EXTT8=
EXTT9=
EXTT10=
EXTT11=
EXTT12=
EXTT13=
EXTT14=
EXTT15=
EXTT16=
EXTT17=
EXTT18=
EXTT19=
PLAYORDER=
